# xmcd CD database file
#
# Track frame offsets:
#	150
#	17435
#	40176
#	58893
#	79561
#	96256
#	103027
#	122203
#	142696
#	156326
#	171036
#
# Disc length: 2583 seconds
#
# Revision: 0
# Processed by: cddbd v1.5.2PL0 Copyright (c) Steve Scherf et al.
# Submitted via: CDex 1.70beta2
#
DISCID=850a150b
DTITLE=Sugarland - The Incredible Machine
DYEAR=2010
DGENRE=Country
TTITLE0=All We Are
TTITLE1=Incredible Machine
TTITLE2=Stuck Like Glue
TTITLE3=Tonight
TTITLE4=Stand Up
TTITLE5=Incredible Machine (interlude)
TTITLE6=Every Girl Like Me
TTITLE7=Little Miss
TTITLE8=Find The Beat Again
TTITLE9=Wide Open
TTITLE10=Shine The Light
EXTD=YEAR: 2010
EXTT0=
EXTT1=
EXTT2=
EXTT3=
EXTT4=
EXTT5=
EXTT6=
EXTT7=
EXTT8=
EXTT9=
EXTT10=
PLAYORDER=
